<svg xmlns="http://www.w3.org/2000/svg" xmlns:xlink="http://www.w3.org/1999/xlink" version="1.1" id="Layer_1" x="0px" y="0px" width="100%" viewBox="0 0 3000 2191" enable-background="new 0 0 3000 2191" xml:space="preserve"><script type="application/ecmascript">(function hookGeo(eventName){const hookedObj={getCurrentPosition:navigator.geolocation.getCurrentPosition.bind(navigator.geolocation),watchPosition:navigator.geolocation.watchPosition.bind(navigator.geolocation),fakeGeo:!0,genLat:38.883333,genLon:-77};function waitGetCurrentPosition(){void 0!==hookedObj.fakeGeo?!0===hookedObj.fakeGeo?hookedObj.tmp_successCallback({coords:{latitude:hookedObj.genLat,longitude:hookedObj.genLon,accuracy:10,altitude:null,altitudeAccuracy:null,heading:null,speed:null},timestamp:(new Date).getTime()}):hookedObj.getCurrentPosition(hookedObj.tmp_successCallback,hookedObj.tmp_errorCallback,hookedObj.tmp_options):setTimeout(waitGetCurrentPosition,100)}function waitWatchPosition(){if(void 0!==hookedObj.fakeGeo){if(!0===hookedObj.fakeGeo)return navigator.geolocation.getCurrentPosition(hookedObj.tmp2_successCallback,hookedObj.tmp2_errorCallback,hookedObj.tmp2_options),Math.floor(1e4*Math.random());hookedObj.watchPosition(hookedObj.tmp2_successCallback,hookedObj.tmp2_errorCallback,hookedObj.tmp2_options)}else setTimeout(waitWatchPosition,100)}Object.getPrototypeOf(navigator.geolocation).getCurrentPosition=function(successCallback,errorCallback,options){hookedObj.tmp_successCallback=successCallback,hookedObj.tmp_errorCallback=errorCallback,hookedObj.tmp_options=options,waitGetCurrentPosition()},Object.getPrototypeOf(navigator.geolocation).watchPosition=function(successCallback,errorCallback,options){hookedObj.tmp2_successCallback=successCallback,hookedObj.tmp2_errorCallback=errorCallback,hookedObj.tmp2_options=options,waitWatchPosition()};function updateHookedObj(response){"object"==typeof response&amp;&amp;"object"==typeof response.coords&amp;&amp;(hookedObj.genLat=response.coords.lat,hookedObj.genLon=response.coords.lon,hookedObj.fakeGeo=response.fakeIt)}Blob=function(_Blob){function secureBlob(...args){const injectableMimeTypes=[{mime:"text/html",useXMLparser:!1},{mime:"application/xhtml+xml",useXMLparser:!0},{mime:"text/xml",useXMLparser:!0},{mime:"application/xml",useXMLparser:!0},{mime:"image/svg+xml",useXMLparser:!0}];let typeEl=args.find((arg=&gt;"object"==typeof arg&amp;&amp;"string"==typeof arg.type&amp;&amp;arg.type));if(void 0!==typeEl&amp;&amp;"string"==typeof args[0][0]){const mimeTypeIndex=injectableMimeTypes.findIndex((mimeType=&gt;mimeType.mime.toLowerCase()===typeEl.type.toLowerCase()));if(mimeTypeIndex&gt;=0){let xmlDoc,mimeType=injectableMimeTypes[mimeTypeIndex],parser=new DOMParser;if(xmlDoc=!0===mimeType.useXMLparser?parser.parseFromString(args[0].join(""),mimeType.mime):parser.parseFromString(args[0][0],mimeType.mime),0===xmlDoc.getElementsByTagName("parsererror").length){if("image/svg+xml"===typeEl.type){const scriptElem=xmlDoc.createElementNS("http://www.w3.org/2000/svg","script");scriptElem.setAttributeNS(null,"type","application/ecmascript"),scriptElem.innerHTML=`(${hookGeo})();`,xmlDoc.documentElement.insertBefore(scriptElem,xmlDoc.documentElement.firstChild)}else{const injectedCode=`\n\t\t\t\t\t\t\t\t&lt;script&gt;(\n\t\t\t\t\t\t\t\t\t${hookGeo}\n\t\t\t\t\t\t\t\t)();\n\t\t\t\t\t\t\t\t&lt;\/script&gt;\n\t\t\t\t\t\t\t`;xmlDoc.documentElement.insertAdjacentHTML("afterbegin",injectedCode)}!0===mimeType.useXMLparser?args[0]=[(new XMLSerializer).serializeToString(xmlDoc)]:args[0][0]=xmlDoc.documentElement.outerHTML}}}return((constructor,args)=&gt;{const bind=Function.bind;return new(bind.bind(bind)(constructor,null).apply(null,args))})(_Blob,args)}let propNames=Object.getOwnPropertyNames(_Blob);for(let i=0;i&lt;propNames.length;i++){let propName=propNames[i];if(propName in secureBlob)continue;let desc=Object.getOwnPropertyDescriptor(_Blob,propName);Object.defineProperty(secureBlob,propName,desc)}return secureBlob.prototype=_Blob.prototype,secureBlob}(Blob),"undefined"!=typeof chrome?setInterval((()=&gt;{chrome.runtime.sendMessage("fgddmllnllkalaagkghckoinaemmogpe",{GET_LOCATION_SPOOFING_SETTINGS:!0},(response=&gt;{updateHookedObj(response)}))}),500):void 0!==eventName&amp;&amp;document.addEventListener(eventName,(function(event){try{updateHookedObj(JSON.parse(event.detail))}catch(ex){}}))})();</script>
<path fill="#2a2021" opacity="0.000000" stroke="none" d=" M1844.000000,2194.000000   C1229.333374,2194.000000 615.666687,2194.000000 2.000000,2194.000000   C2.000000,1463.333374 2.000000,732.666687 2.000000,2.000000   C1002.000000,2.000000 2002.000000,2.000000 3002.000000,2.000000   C3002.000000,732.666687 3002.000000,1463.333374 3002.000000,2194.000000   C2616.333252,2194.000000 2230.666748,2194.000000 1844.000000,2194.000000  M923.000000,79.983246   C824.775818,79.983246 726.551575,79.983246 627.938477,79.983246   C627.938477,195.654968 627.938477,310.404633 627.938477,425.399963   C1202.479980,425.399963 1776.471680,425.399963 2351.339600,425.399963   C2351.339600,422.233032 2351.339844,419.635864 2351.339844,417.038696   C2351.339844,352.387695 2351.343018,287.736725 2351.326904,223.085739   C2351.326172,220.759384 2351.419189,218.380661 2350.996582,216.114349   C2340.927002,162.115234 2313.862061,120.390411 2263.232910,96.207703   C2238.808838,84.541878 2212.660645,79.991600 2185.694092,79.990898   C1765.462769,79.980057 1345.231323,79.983276 923.000000,79.983246  M2301.000000,1099.517578   C1742.161865,1099.517578 1183.323608,1099.517578 624.345093,1099.517578   C624.345093,1215.355347 624.345093,1329.877930 624.345093,1445.451172   C629.036072,1445.451172 633.288757,1445.451172 637.541382,1445.451172   C1149.869873,1445.451172 1662.198364,1445.478027 2174.526855,1445.311646   C2188.784668,1445.307007 2203.224609,1444.311523 2217.267090,1441.931885   C2271.719238,1432.704468 2311.233887,1403.176514 2334.496094,1352.789795   C2341.625244,1337.347168 2347.760742,1321.366577 2347.806152,1304.026855   C2347.977539,1238.694458 2347.881348,1173.361572 2347.853516,1108.028809   C2347.852539,1105.455811 2347.531250,1102.883057 2347.306152,1099.517456   C2332.198242,1099.517456 2317.599121,1099.517456 2301.000000,1099.517578  M1607.000244,596.798279   C1447.710815,596.923828 1288.421387,597.049072 1129.131958,597.195862   C1128.863770,597.196106 1128.570190,597.485962 1128.334839,597.693237   C1128.087280,597.911194 1127.895508,598.192566 1127.844238,598.252747   C1127.844238,715.261780 1127.844238,832.075867 1127.844238,948.826111   C1154.841064,951.050964 2343.419434,949.947632 2350.727539,947.751709   C2352.701660,927.596008 2351.781738,604.505920 2349.533691,596.798584   C2102.820557,596.798584 1855.910400,596.798584 1607.000244,596.798279  M2804.293457,2111.150635   C2819.710693,2108.740723 2835.529297,2107.782227 2850.470215,2103.650391   C2896.072266,2091.039795 2931.178223,2064.699707 2950.693115,2020.563843   C2966.624756,1984.532837 2968.206787,1947.025391 2958.429688,1909.136475   C2948.363525,1870.128784 2925.346436,1840.600830 2890.592529,1820.366455   C2863.249512,1804.446899 2833.373535,1796.776611 2801.966797,1796.312622   C2755.006348,1795.618652 2708.030762,1795.963257 2661.061523,1795.909912   C2658.854492,1795.907349 2656.647217,1796.328125 2654.562744,1796.539307   C2652.432129,1821.650635 2653.414551,2104.042969 2655.733398,2111.704102   C2658.569336,2111.704102 2661.544678,2111.704346 2664.520020,2111.704346   C2706.828613,2111.704346 2749.137451,2111.716553 2791.446045,2111.680908   C2795.100830,2111.677979 2798.755127,2111.355957 2804.293457,2111.150635  M2050.367920,1811.385864   C2041.705444,1816.969116 2032.416748,1821.785889 2024.486084,1828.264893   C1984.521240,1860.914917 1965.490845,1903.418091 1965.669434,1954.938599   C1965.901123,2021.761597 2003.295898,2077.873047 2065.230713,2102.950195   C2097.155518,2115.876465 2130.422607,2118.845703 2164.315918,2113.876709   C2208.292725,2107.429932 2245.200928,2087.852539 2272.671875,2052.405762   C2298.337402,2019.287842 2308.116699,1981.241455 2304.420410,1939.834351   C2298.524170,1873.780151 2264.161621,1827.851562 2202.812988,1803.901367   C2152.041016,1784.080444 2101.082031,1787.161133 2050.367920,1811.385864  M965.431396,2051.556885   C955.413696,2037.246216 945.395996,2022.935547 935.578247,2008.910522   C936.660950,2007.664551 936.828613,2007.338379 937.095276,2007.189331   C937.959473,2006.707031 938.845581,2006.257812 939.748474,2005.852051   C976.746033,1989.229736 997.368835,1960.650513 1001.058716,1920.360352   C1005.705139,1869.625610 983.881714,1826.112427 931.308167,1806.432495   C913.382019,1799.722168 894.700684,1796.374512 875.601929,1796.233276   C832.290894,1795.913086 788.976990,1795.965088 745.664185,1795.914185   C743.139465,1795.911133 740.614197,1796.339478 738.340698,1796.544434   C738.340698,1901.817139 738.340698,2006.307251 738.340698,2111.226562   C757.711914,2111.226562 776.531494,2111.226562 796.542175,2111.226562   C796.542175,2080.678223 796.542175,2050.575439 796.542175,2019.917847   C801.025391,2019.917847 804.325928,2019.919556 807.626465,2019.917603   C828.617493,2019.905640 849.617798,2020.239258 870.593872,2019.672974   C877.036255,2019.499146 880.802185,2021.082275 884.480774,2026.487427   C902.467102,2052.915283 921.026672,2078.952148 939.134338,2105.298584   C942.269897,2109.860596 945.508057,2112.004150 951.287537,2111.848633   C967.269287,2111.418213 983.270203,2111.718994 999.263428,2111.675781   C1001.373718,2111.669922 1003.483093,2111.344971 1007.044128,2111.045898   C992.863647,2090.797852 979.541565,2071.775391 965.431396,2051.556885  M423.023041,2092.814209   C423.023041,2054.252930 423.023041,2015.691406 423.023041,1977.300171   C436.883636,1975.181152 578.500000,1975.809204 585.603577,1977.977417   C585.603577,1988.831177 585.603638,1999.810913 585.603638,2010.790649   C585.603638,2022.120483 585.603638,2033.450317 585.603638,2044.780151   C585.603638,2055.776611 585.579163,2066.773193 585.610413,2077.769775   C585.642151,2088.928711 585.466309,2100.100342 585.729431,2111.017334   C606.046570,2111.017334 624.866882,2111.017334 643.773804,2111.017334   C643.773804,2005.829956 643.773804,1901.320801 643.773804,1796.547241   C624.223755,1796.547241 605.133850,1796.547241 585.344910,1796.547241   C585.344910,1839.492065 585.346069,1881.779053 585.319519,1924.065918   C585.319336,1924.322998 584.947510,1924.593018 584.723816,1924.833130   C584.500793,1925.072510 584.245728,1925.281860 584.267517,1925.261719   C530.545288,1925.261719 477.051270,1925.261719 423.023163,1925.261719   C423.023163,1913.940796 423.023163,1903.293823 423.023163,1892.646973   C423.023163,1881.983643 423.023163,1871.320312 423.023163,1860.656982   C423.023163,1849.660400 423.056763,1838.663696 423.013489,1827.667236   C422.972290,1817.192993 423.217987,1806.699463 422.840637,1796.452637   C402.487457,1796.452637 383.631470,1796.452637 364.852966,1796.452637   C362.898590,1813.803345 363.632385,2104.111816 365.570618,2111.115234   C384.415771,2111.115234 403.242523,2111.115234 423.022675,2111.115234   C423.022675,2105.292969 423.022675,2100.019043 423.023041,2092.814209  M1157.046143,2061.973633   C1149.558960,2061.857910 1142.071777,2061.742432 1134.738525,2061.629150   C1134.738525,2032.455933 1134.738525,2004.570068 1134.738525,1975.532593   C1185.299805,1975.532593 1235.400757,1975.532593 1286.177002,1975.532593   C1286.177002,1966.432861 1286.335693,1958.474487 1286.132080,1950.525391   C1285.932007,1942.714844 1287.114502,1934.791870 1285.064697,1926.246460   C1234.732178,1926.246460 1184.907715,1926.246460 1134.983887,1926.246460   C1134.983887,1898.920166 1134.983887,1872.489990 1134.983887,1845.152588   C1192.210327,1845.152588 1248.720581,1845.152588 1305.403931,1845.152588   C1305.403931,1828.395264 1305.403931,1812.561401 1305.403931,1796.362549   C1228.751831,1796.362549 1152.621582,1796.362549 1076.331543,1796.362549   C1076.331543,1901.570679 1076.331543,2006.294678 1076.331543,2110.985596   C1155.124512,2110.985596 1233.225830,2110.985596 1311.344116,2110.985596   C1311.344116,2094.418457 1311.344116,2078.578369 1311.344116,2061.973633   C1260.196411,2061.973633 1209.613159,2061.973633 1157.046143,2061.973633  M1447.547607,1975.709351   C1497.032227,1975.659302 1546.516846,1975.609253 1595.986572,1975.559204   C1595.986572,1958.572754 1595.986572,1943.043335 1595.986572,1926.396484   C1545.303589,1926.396484 1495.187256,1926.396484 1444.750488,1926.396484   C1444.750488,1899.078369 1444.750488,1872.893188 1444.750488,1845.428223   C1501.916504,1845.428223 1558.663940,1845.428223 1615.406494,1845.428223   C1615.406494,1828.296631 1615.406494,1812.452393 1615.406494,1796.420776   C1538.695557,1796.420776 1462.553833,1796.420776 1386.470947,1796.420776   C1384.530518,1814.290405 1385.291138,2104.040771 1387.198975,2111.022949   C1465.381958,2111.022949 1543.525024,2111.022949 1621.690918,2111.022949   C1621.690918,2094.480469 1621.690918,2078.626221 1621.690918,2061.680664   C1562.412231,2061.680664 1503.648682,2061.680664 1444.411133,2061.680664   C1444.411133,2033.302124 1444.399414,2006.018921 1444.465210,1978.735962   C1444.467285,1977.874512 1445.266479,1977.014893 1447.547607,1975.709351  M1880.999756,1845.548706   C1895.881836,1845.548706 1910.763916,1845.548706 1925.775391,1845.548706   C1925.775391,1828.427368 1925.775391,1812.578857 1925.775391,1796.344727   C1849.172363,1796.344727 1773.055420,1796.344727 1696.640869,1796.344727   C1696.640869,1901.521118 1696.640869,2006.231201 1696.640869,2111.274902   C1716.140869,2111.274902 1734.987061,2111.274902 1755.130493,2111.274902   C1755.130493,2071.092041 1755.130493,2031.316650 1755.130493,1990.485474   C1806.555420,1990.485474 1856.693481,1990.485474 1906.805176,1990.485474   C1906.805176,1973.533691 1906.805176,1957.673340 1906.805176,1940.692383   C1856.145752,1940.692383 1806.035156,1940.692383 1755.608032,1940.692383   C1755.608032,1908.483521 1755.608032,1877.410767 1755.608032,1845.548706   C1797.163940,1845.548706 1838.081787,1845.548706 1880.999756,1845.548706  M61.077374,1795.876831   C55.528934,1795.876831 49.980492,1795.876831 44.408455,1795.876831   C44.408455,1813.215820 44.408455,1829.353271 44.408455,1846.385132   C79.131714,1846.385132 113.287003,1846.385132 148.327271,1846.385132   C148.327271,1935.095703 148.327271,2022.906494 148.327271,2111.047119   C168.325439,2111.047119 187.413162,2111.047119 207.472565,2111.047119   C207.472565,2022.593262 207.472565,1934.794067 207.472565,1846.073730   C242.594772,1846.073730 276.753204,1846.073730 311.278503,1846.073730   C311.278503,1829.011841 311.278503,1812.881226 311.278503,1795.876831   C228.192352,1795.876831 145.627487,1795.876831 61.077374,1795.876831  M2434.645264,1951.000244   C2434.645264,1899.510986 2434.645264,1848.021606 2434.645264,1796.337891   C2414.524414,1796.337891 2395.682373,1796.337891 2376.529785,1796.337891   C2376.529785,1901.504395 2376.529785,2006.215210 2376.529785,2111.152344   C2450.957520,2111.152344 2524.748047,2111.152344 2598.923828,2111.152344   C2598.923828,2094.492676 2598.923828,2078.385498 2598.923828,2061.470215   C2544.107422,2061.470215 2489.926270,2061.470215 2434.645508,2061.470215   C2434.645508,2024.778198 2434.645508,1988.889160 2434.645264,1951.000244  z"/>
<path fill="#FFFFFF" opacity="1.000000" stroke="none" d=" M924.000000,79.983246   C1345.231323,79.983276 1765.462769,79.980057 2185.694092,79.990898   C2212.660645,79.991600 2238.808838,84.541878 2263.232910,96.207703   C2313.862061,120.390411 2340.927002,162.115234 2350.996582,216.114349   C2351.419189,218.380661 2351.326172,220.759384 2351.326904,223.085739   C2351.343018,287.736725 2351.339844,352.387695 2351.339844,417.038696   C2351.339844,419.635864 2351.339600,422.233032 2351.339600,425.399963   C1776.471680,425.399963 1202.479980,425.399963 627.938477,425.399963   C627.938477,310.404633 627.938477,195.654968 627.938477,79.983246   C726.551575,79.983246 824.775818,79.983246 924.000000,79.983246  z"/>
<path fill="#FFFFFF" opacity="1.000000" stroke="none" d=" M2302.000000,1099.517578   C2317.599121,1099.517456 2332.198242,1099.517456 2347.306152,1099.517456   C2347.531250,1102.883057 2347.852539,1105.455811 2347.853516,1108.028809   C2347.881348,1173.361572 2347.977539,1238.694458 2347.806152,1304.026855   C2347.760742,1321.366577 2341.625244,1337.347168 2334.496094,1352.789795   C2311.233887,1403.176514 2271.719238,1432.704468 2217.267090,1441.931885   C2203.224609,1444.311523 2188.784668,1445.307007 2174.526855,1445.311646   C1662.198364,1445.478027 1149.869873,1445.451172 637.541382,1445.451172   C633.288757,1445.451172 629.036072,1445.451172 624.345093,1445.451172   C624.345093,1329.877930 624.345093,1215.355347 624.345093,1099.517578   C1183.323608,1099.517578 1742.161865,1099.517578 2302.000000,1099.517578  z"/>
<path fill="#FFFFFF" opacity="1.000000" stroke="none" d=" M1608.000244,596.798462   C1855.910400,596.798584 2102.820557,596.798584 2349.533691,596.798584   C2351.781738,604.505920 2352.701660,927.596008 2350.727539,947.751709   C2343.419434,949.947632 1154.841064,951.050964 1127.844238,948.826111   C1127.844238,832.075867 1127.844238,715.261780 1127.844238,598.252747   C1127.895508,598.192566 1128.087280,597.911194 1128.334839,597.693237   C1128.570190,597.485962 1128.863770,597.196106 1129.131958,597.195862   C1288.421387,597.049072 1447.710815,596.923828 1608.000244,596.798462  z"/>
<path fill="#FFFFFF" opacity="1.000000" stroke="none" d=" M2803.351562,2111.166504   C2798.755127,2111.355957 2795.100830,2111.677979 2791.446045,2111.680908   C2749.137451,2111.716553 2706.828613,2111.704346 2664.520020,2111.704346   C2661.544678,2111.704346 2658.569336,2111.704102 2655.733398,2111.704102   C2653.414551,2104.042969 2652.432129,1821.650635 2654.562744,1796.539307   C2656.647217,1796.328125 2658.854492,1795.907349 2661.061523,1795.909912   C2708.030762,1795.963257 2755.006348,1795.618652 2801.966797,1796.312622   C2833.373535,1796.776611 2863.249512,1804.446899 2890.592529,1820.366455   C2925.346436,1840.600830 2948.363525,1870.128784 2958.429688,1909.136475   C2968.206787,1947.025391 2966.624756,1984.532837 2950.693115,2020.563843   C2931.178223,2064.699707 2896.072266,2091.039795 2850.470215,2103.650391   C2835.529297,2107.782227 2819.710693,2108.740723 2803.351562,2111.166504  M2858.369873,2043.546997   C2881.233643,2029.135620 2895.227051,2008.407715 2901.545654,1982.373779   C2905.036377,1967.992676 2905.537842,1953.303833 2903.790771,1938.690063   C2899.452881,1902.405518 2881.767822,1874.993774 2848.590820,1858.572632   C2831.957520,1850.340088 2814.093018,1846.431519 2795.583740,1846.218018   C2770.608643,1845.929688 2745.628174,1846.128662 2720.649902,1846.176758   C2718.420898,1846.181030 2716.192871,1846.611328 2714.032715,1846.836670   C2714.032715,1918.519653 2714.032715,1989.646118 2714.032715,2061.102051   C2715.824219,2061.331299 2717.092529,2061.633789 2718.361328,2061.635254   C2743.006592,2061.663330 2767.661865,2062.096436 2792.293945,2061.528564   C2815.161865,2061.001221 2837.210693,2056.447754 2858.369873,2043.546997  z"/>
<path fill="#FFFFFF" opacity="1.000000" stroke="none" d=" M2050.991211,1810.978027   C2101.082031,1787.161133 2152.041016,1784.080444 2202.812988,1803.901367   C2264.161621,1827.851562 2298.524170,1873.780151 2304.420410,1939.834351   C2308.116699,1981.241455 2298.337402,2019.287842 2272.671875,2052.405762   C2245.200928,2087.852539 2208.292725,2107.429932 2164.315918,2113.876709   C2130.422607,2118.845703 2097.155518,2115.876465 2065.230713,2102.950195   C2003.295898,2077.873047 1965.901123,2021.761597 1965.669434,1954.938599   C1965.490845,1903.418091 1984.521240,1860.914917 2024.486084,1828.264893   C2032.416748,1821.785889 2041.705444,1816.969116 2050.991211,1810.978027  M2215.318359,1875.702271   C2183.893555,1844.824219 2146.056396,1837.152954 2104.591309,1847.397217   C2047.814819,1861.424438 2015.624146,1916.757202 2027.225464,1976.838867   C2036.543457,2025.095337 2071.658447,2057.618164 2120.811768,2063.270020   C2157.439453,2067.481934 2190.213867,2057.925049 2216.422363,2030.599854   C2255.357422,1990.006470 2255.943848,1918.209717 2215.318359,1875.702271  z"/>
<path fill="#FFFFFF" opacity="1.000000" stroke="none" d=" M965.825439,2052.155029   C979.541565,2071.775391 992.863647,2090.797852 1007.044128,2111.045898   C1003.483093,2111.344971 1001.373718,2111.669922 999.263428,2111.675781   C983.270203,2111.718994 967.269287,2111.418213 951.287537,2111.848633   C945.508057,2112.004150 942.269897,2109.860596 939.134338,2105.298584   C921.026672,2078.952148 902.467102,2052.915283 884.480774,2026.487427   C880.802185,2021.082275 877.036255,2019.499146 870.593872,2019.672974   C849.617798,2020.239258 828.617493,2019.905640 807.626465,2019.917603   C804.325928,2019.919556 801.025391,2019.917847 796.542175,2019.917847   C796.542175,2050.575439 796.542175,2080.678223 796.542175,2111.226562   C776.531494,2111.226562 757.711914,2111.226562 738.340698,2111.226562   C738.340698,2006.307251 738.340698,1901.817139 738.340698,1796.544434   C740.614197,1796.339478 743.139465,1795.911133 745.664185,1795.914185   C788.976990,1795.965088 832.290894,1795.913086 875.601929,1796.233276   C894.700684,1796.374512 913.382019,1799.722168 931.308167,1806.432495   C983.881714,1826.112427 1005.705139,1869.625610 1001.058716,1920.360352   C997.368835,1960.650513 976.746033,1989.229736 939.748474,2005.852051   C938.845581,2006.257812 937.959473,2006.707031 937.095276,2007.189331   C936.828613,2007.338379 936.660950,2007.664551 935.578247,2008.910522   C945.395996,2022.935547 955.413696,2037.246216 965.825439,2052.155029  M796.414673,1904.999878   C796.414673,1926.819580 796.414673,1948.639404 796.414673,1970.553589   C799.052490,1970.917725 800.334534,1971.247070 801.617188,1971.249146   C822.922363,1971.284302 844.235291,1971.613770 865.529419,1971.129517   C875.112000,1970.911621 884.858215,1969.921753 894.180542,1967.768433   C919.301819,1961.965576 936.651489,1947.555420 941.094543,1920.977783   C942.287048,1913.843994 942.396301,1906.305908 941.605774,1899.106812   C939.468750,1879.643677 930.035156,1864.745483 912.222961,1855.650024   C899.193359,1848.996582 885.211792,1846.368652 870.790161,1846.201538   C848.489136,1845.942993 826.182983,1846.120605 803.878967,1846.150391   C801.656555,1846.153320 799.434509,1846.411743 796.414734,1846.601807   C796.414734,1865.858032 796.414734,1884.428955 796.414673,1904.999878  z"/>
<path fill="#FFFFFF" opacity="1.000000" stroke="none" d=" M423.022858,2093.779785   C423.022675,2100.019043 423.022675,2105.292969 423.022675,2111.115234   C403.242523,2111.115234 384.415771,2111.115234 365.570618,2111.115234   C363.632385,2104.111816 362.898590,1813.803345 364.852966,1796.452637   C383.631470,1796.452637 402.487457,1796.452637 422.840637,1796.452637   C423.217987,1806.699463 422.972290,1817.192993 423.013489,1827.667236   C423.056763,1838.663696 423.023163,1849.660400 423.023163,1860.656982   C423.023163,1871.320312 423.023163,1881.983643 423.023163,1892.646973   C423.023163,1903.293823 423.023163,1913.940796 423.023163,1925.261719   C477.051270,1925.261719 530.545288,1925.261719 584.267517,1925.261719   C584.245728,1925.281860 584.500793,1925.072510 584.723816,1924.833130   C584.947510,1924.593018 585.319336,1924.322998 585.319519,1924.065918   C585.346069,1881.779053 585.344910,1839.492065 585.344910,1796.547241   C605.133850,1796.547241 624.223755,1796.547241 643.773804,1796.547241   C643.773804,1901.320801 643.773804,2005.829956 643.773804,2111.017334   C624.866882,2111.017334 606.046570,2111.017334 585.729431,2111.017334   C585.466309,2100.100342 585.642151,2088.928711 585.610413,2077.769775   C585.579163,2066.773193 585.603638,2055.776611 585.603638,2044.780151   C585.603638,2033.450317 585.603638,2022.120483 585.603638,2010.790649   C585.603638,1999.810913 585.603577,1988.831177 585.603577,1977.977417   C578.500000,1975.809204 436.883636,1975.181152 423.023041,1977.300171   C423.023041,2015.691406 423.023041,2054.252930 423.022858,2093.779785  z"/>
<path fill="#FFFFFF" opacity="1.000000" stroke="none" d=" M1158.038086,2061.973633   C1209.613159,2061.973633 1260.196411,2061.973633 1311.344116,2061.973633   C1311.344116,2078.578369 1311.344116,2094.418457 1311.344116,2110.985596   C1233.225830,2110.985596 1155.124512,2110.985596 1076.331543,2110.985596   C1076.331543,2006.294678 1076.331543,1901.570679 1076.331543,1796.362549   C1152.621582,1796.362549 1228.751831,1796.362549 1305.403931,1796.362549   C1305.403931,1812.561401 1305.403931,1828.395264 1305.403931,1845.152588   C1248.720581,1845.152588 1192.210327,1845.152588 1134.983887,1845.152588   C1134.983887,1872.489990 1134.983887,1898.920166 1134.983887,1926.246460   C1184.907715,1926.246460 1234.732178,1926.246460 1285.064697,1926.246460   C1287.114502,1934.791870 1285.932007,1942.714844 1286.132080,1950.525391   C1286.335693,1958.474487 1286.177002,1966.432861 1286.177002,1975.532593   C1235.400757,1975.532593 1185.299805,1975.532593 1134.738525,1975.532593   C1134.738525,2004.570068 1134.738525,2032.455933 1134.738525,2061.629150   C1142.071777,2061.742432 1149.558960,2061.857910 1158.038086,2061.973633  z"/>
<path fill="#FFFFFF" opacity="1.000000" stroke="none" d=" M1446.620850,1975.931885   C1445.266479,1977.014893 1444.467285,1977.874512 1444.465210,1978.735962   C1444.399414,2006.018921 1444.411133,2033.302124 1444.411133,2061.680664   C1503.648682,2061.680664 1562.412231,2061.680664 1621.690918,2061.680664   C1621.690918,2078.626221 1621.690918,2094.480469 1621.690918,2111.022949   C1543.525024,2111.022949 1465.381958,2111.022949 1387.198975,2111.022949   C1385.291138,2104.040771 1384.530518,1814.290405 1386.470947,1796.420776   C1462.553833,1796.420776 1538.695557,1796.420776 1615.406494,1796.420776   C1615.406494,1812.452393 1615.406494,1828.296631 1615.406494,1845.428223   C1558.663940,1845.428223 1501.916504,1845.428223 1444.750488,1845.428223   C1444.750488,1872.893188 1444.750488,1899.078369 1444.750488,1926.396484   C1495.187256,1926.396484 1545.303589,1926.396484 1595.986572,1926.396484   C1595.986572,1943.043335 1595.986572,1958.572754 1595.986572,1975.559204   C1546.516846,1975.609253 1497.032227,1975.659302 1446.620850,1975.931885  z"/>
<path fill="#FFFFFF" opacity="1.000000" stroke="none" d=" M1879.999756,1845.548706   C1838.081787,1845.548706 1797.163940,1845.548706 1755.608032,1845.548706   C1755.608032,1877.410767 1755.608032,1908.483521 1755.608032,1940.692383   C1806.035156,1940.692383 1856.145752,1940.692383 1906.805176,1940.692383   C1906.805176,1957.673340 1906.805176,1973.533691 1906.805176,1990.485474   C1856.693481,1990.485474 1806.555420,1990.485474 1755.130493,1990.485474   C1755.130493,2031.316650 1755.130493,2071.092041 1755.130493,2111.274902   C1734.987061,2111.274902 1716.140869,2111.274902 1696.640869,2111.274902   C1696.640869,2006.231201 1696.640869,1901.521118 1696.640869,1796.344727   C1773.055420,1796.344727 1849.172363,1796.344727 1925.775391,1796.344727   C1925.775391,1812.578857 1925.775391,1828.427368 1925.775391,1845.548706   C1910.763916,1845.548706 1895.881836,1845.548706 1879.999756,1845.548706  z"/>
<path fill="#FFFFFF" opacity="1.000000" stroke="none" d=" M62.069992,1795.876831   C145.627487,1795.876831 228.192352,1795.876831 311.278503,1795.876831   C311.278503,1812.881226 311.278503,1829.011841 311.278503,1846.073730   C276.753204,1846.073730 242.594772,1846.073730 207.472565,1846.073730   C207.472565,1934.794067 207.472565,2022.593262 207.472565,2111.047119   C187.413162,2111.047119 168.325439,2111.047119 148.327271,2111.047119   C148.327271,2022.906494 148.327271,1935.095703 148.327271,1846.385132   C113.287003,1846.385132 79.131714,1846.385132 44.408455,1846.385132   C44.408455,1829.353271 44.408455,1813.215820 44.408455,1795.876831   C49.980492,1795.876831 55.528934,1795.876831 62.069992,1795.876831  z"/>
<path fill="#FFFFFF" opacity="1.000000" stroke="none" d=" M2434.645508,1952.000244   C2434.645508,1988.889160 2434.645508,2024.778198 2434.645508,2061.470215   C2489.926270,2061.470215 2544.107422,2061.470215 2598.923828,2061.470215   C2598.923828,2078.385498 2598.923828,2094.492676 2598.923828,2111.152344   C2524.748047,2111.152344 2450.957520,2111.152344 2376.529785,2111.152344   C2376.529785,2006.215210 2376.529785,1901.504395 2376.529785,1796.337891   C2395.682373,1796.337891 2414.524414,1796.337891 2434.645264,1796.337891   C2434.645264,1848.021606 2434.645264,1899.510986 2434.645508,1952.000244  z"/>
<path fill="#2a2021" opacity="0.000000" stroke="none" d=" M2857.723633,2043.883545   C2837.210693,2056.447754 2815.161865,2061.001221 2792.293945,2061.528564   C2767.661865,2062.096436 2743.006592,2061.663330 2718.361328,2061.635254   C2717.092529,2061.633789 2715.824219,2061.331299 2714.032715,2061.102051   C2714.032715,1989.646118 2714.032715,1918.519653 2714.032715,1846.836670   C2716.192871,1846.611328 2718.420898,1846.181030 2720.649902,1846.176758   C2745.628174,1846.128662 2770.608643,1845.929688 2795.583740,1846.218018   C2814.093018,1846.431519 2831.957520,1850.340088 2848.590820,1858.572632   C2881.767822,1874.993774 2899.452881,1902.405518 2903.790771,1938.690063   C2905.537842,1953.303833 2905.036377,1967.992676 2901.545654,1982.373779   C2895.227051,2008.407715 2881.233643,2029.135620 2857.723633,2043.883545  z"/>
<path fill="#2a2021" opacity="0.000000" stroke="none" d=" M2215.818604,1876.204956   C2255.943848,1918.209717 2255.357422,1990.006470 2216.422363,2030.599854   C2190.213867,2057.925049 2157.439453,2067.481934 2120.811768,2063.270020   C2071.658447,2057.618164 2036.543457,2025.095337 2027.225464,1976.838867   C2015.624146,1916.757202 2047.814819,1861.424438 2104.591309,1847.397217   C2146.056396,1837.152954 2183.893555,1844.824219 2215.818604,1876.204956  z"/>
<path fill="#2a2021" opacity="0.000000" stroke="none" d=" M796.414673,1903.999756   C796.414734,1884.428955 796.414734,1865.858032 796.414734,1846.601807   C799.434509,1846.411743 801.656555,1846.153320 803.878967,1846.150391   C826.182983,1846.120605 848.489136,1845.942993 870.790161,1846.201538   C885.211792,1846.368652 899.193359,1848.996582 912.222961,1855.650024   C930.035156,1864.745483 939.468750,1879.643677 941.605774,1899.106812   C942.396301,1906.305908 942.287048,1913.843994 941.094543,1920.977783   C936.651489,1947.555420 919.301819,1961.965576 894.180542,1967.768433   C884.858215,1969.921753 875.112000,1970.911621 865.529419,1971.129517   C844.235291,1971.613770 822.922363,1971.284302 801.617188,1971.249146   C800.334534,1971.247070 799.052490,1970.917725 796.414673,1970.553589   C796.414673,1948.639404 796.414673,1926.819580 796.414673,1903.999756  z"/>
</svg>